<svg width="210" height="43" viewBox="0 0 210 43" fill="none" xmlns="http://www.w3.org/2000/svg">
<path d="M37.7237 5.42407L28.4502 10.7803L37.7237 16.1437V5.42407Z" fill="url(#paint0_linear_81_27511)"/>
<path d="M37.7236 16.1437L46.9971 21.4999V10.7803L37.7236 16.1437Z" fill="url(#paint1_linear_81_27511)"/>
<path d="M46.9971 10.7803L37.7236 5.42407V16.1437L46.9971 10.7803Z" fill="url(#paint2_linear_81_27511)"/>
<path d="M56.2658 5.42407L46.9971 0.0678711L37.7236 5.42407L46.9971 10.7803L56.2658 5.42407Z" fill="url(#paint3_linear_81_27511)"/>
<path d="M56.2667 5.42407L46.998 10.7803V21.4999L56.2667 16.1437V5.42407Z" fill="url(#paint4_linear_81_27511)"/>
<path d="M9.90834 21.4999L0.639648 26.8609V37.5757L9.90834 32.2195V21.4999Z" fill="url(#paint5_linear_81_27511)"/>
<path d="M0.639648 37.5757L9.90834 42.9368L19.1819 37.5757L9.90834 32.2195L0.639648 37.5757Z" fill="url(#paint6_linear_81_27511)"/>
<path d="M19.1817 26.8609L9.9082 21.4999V32.2195L19.1817 26.8609Z" fill="url(#paint7_linear_81_27511)"/>
<path d="M9.9082 32.2195L19.1817 37.5757V26.8609L9.9082 32.2195Z" fill="url(#paint8_linear_81_27511)"/>
<path d="M19.1816 37.5757L28.4503 32.2195L19.1816 26.8609V37.5757Z" fill="url(#paint9_linear_81_27511)"/>
<path d="M37.7236 26.861L46.9971 21.5L37.7236 16.1438V26.861Z" fill="url(#paint10_linear_81_27511)"/>
<path d="M28.4502 32.2195L37.7237 37.5757V26.8608L28.4502 32.2195Z" fill="url(#paint11_linear_81_27511)"/>
<path d="M56.2667 37.5758V26.861L46.998 21.5V32.2196L56.2667 37.5758Z" fill="url(#paint12_linear_81_27511)"/>
<path d="M37.7236 37.5757L46.9971 42.9367L56.2658 37.5757L46.9971 32.2195L37.7236 37.5757Z" fill="url(#paint13_linear_81_27511)"/>
<path d="M37.7236 26.8608V37.5757L46.9971 32.2195L37.7236 26.8608Z" fill="url(#paint14_linear_81_27511)"/>
<path d="M46.9971 32.2196V21.5L37.7236 26.861L46.9971 32.2196Z" fill="url(#paint15_linear_81_27511)"/>
<path d="M19.1816 26.8609L28.4503 32.2195V21.4999L19.1816 26.8609Z" fill="url(#paint16_linear_81_27511)"/>
<path d="M37.7237 16.1437L28.4502 10.7803V21.4999L37.7237 16.1437Z" fill="url(#paint17_linear_81_27511)"/>
<path d="M28.4502 21.5V32.2196L37.7237 26.861L28.4502 21.5Z" fill="url(#paint18_linear_81_27511)"/>
<path d="M37.7237 26.861V16.1438L28.4502 21.5L37.7237 26.861Z" fill="url(#paint19_linear_81_27511)"/>
<path d="M19.1816 26.8609L28.4503 21.4999L19.1816 16.1437V26.8609Z" fill="url(#paint20_linear_81_27511)"/>
<path d="M28.4503 21.4999V10.7803L19.1816 16.1437L28.4503 21.4999Z" fill="url(#paint21_linear_81_27511)"/>
<path d="M28.4503 10.7803L19.1816 5.42407V16.1437L28.4503 10.7803Z" fill="url(#paint22_linear_81_27511)"/>
<path d="M19.1817 16.1437L9.9082 21.4999L19.1817 26.8609V16.1437Z" fill="url(#paint23_linear_81_27511)"/>
<path d="M19.1817 16.1437V5.42407L9.9082 10.7803L19.1817 16.1437Z" fill="url(#paint24_linear_81_27511)"/>
<path d="M9.9082 10.7803V21.4999L19.1817 16.1437L9.9082 10.7803Z" fill="url(#paint25_linear_81_27511)"/>
<path d="M0.639648 5.42407V16.1437L9.90834 21.4999V10.7803L0.639648 5.42407Z" fill="url(#paint26_linear_81_27511)"/>
<path d="M19.1819 5.42407L9.90834 0.0678711L0.639648 5.42407L9.90834 10.7803L19.1819 5.42407Z" fill="url(#paint27_linear_81_27511)"/>
<path d="M19.1816 26.8609V16.1437L28.4503 10.7803L37.7238 16.1437V26.8609L28.4503 32.2195L19.1816 26.8609Z" fill="url(#paint28_linear_81_27511)"/>
<g opacity="0.82">
<path d="M28.4503 10.7803L19.1816 16.1437L28.4503 21.4999L37.7238 16.1437L28.4503 10.7803Z" fill="url(#paint29_linear_81_27511)"/>
</g>
<g opacity="0.82">
<path d="M28.4502 21.4999V32.2195L37.7237 26.8609V16.1437L28.4502 21.4999Z" fill="url(#paint30_linear_81_27511)"/>
</g>
<g opacity="0.82">
<path d="M28.4503 32.2195L19.1816 26.8609V16.1437L28.4503 21.4999V32.2195Z" fill="url(#paint31_linear_81_27511)"/>
</g>
<path opacity="0.82" d="M9.9082 32.2195V21.4999L19.1817 16.1437V26.8609L9.9082 32.2195Z" fill="url(#paint32_linear_81_27511)"/>
<path opacity="0.82" d="M37.7236 26.861L46.9971 21.5L37.7236 16.1438V26.861Z" fill="url(#paint33_linear_81_27511)"/>
<path opacity="0.82" d="M46.9971 32.2196V21.5L37.7236 26.861L46.9971 32.2196Z" fill="url(#paint34_linear_81_27511)"/>
<path opacity="0.82" d="M9.9082 32.2195L19.1817 37.5757V26.8609L9.9082 32.2195Z" fill="url(#paint35_linear_81_27511)"/>
<path opacity="0.82" d="M19.1816 37.5757L28.4503 32.2195L19.1816 26.8609V37.5757Z" fill="url(#paint36_linear_81_27511)"/>
<path opacity="0.82" d="M37.7237 5.42407L28.4502 10.7803L37.7237 16.1437V5.42407Z" fill="url(#paint37_linear_81_27511)"/>
<path opacity="0.82" d="M28.4503 10.7803L19.1816 5.42407V16.1437L28.4503 10.7803Z" fill="url(#paint38_linear_81_27511)"/>
<path opacity="0.82" d="M19.1817 16.1437V5.42407L9.9082 10.7803L19.1817 16.1437Z" fill="url(#paint39_linear_81_27511)"/>
<path opacity="0.82" d="M46.9971 10.7803L37.7236 5.42407V16.1437L46.9971 10.7803Z" fill="url(#paint40_linear_81_27511)"/>
<g opacity="0.82">
<path d="M37.7238 16.1437L28.4503 21.4999L19.1816 16.1437L28.4503 10.7803L37.7238 16.1437Z" fill="url(#paint41_linear_81_27511)"/>
</g>
<path opacity="0.82" d="M28.4502 10.7803L37.7237 5.42407L46.9972 10.7803L37.7237 16.1437L28.4502 10.7803Z" fill="url(#paint42_linear_81_27511)"/>
<path opacity="0.82" d="M46.9972 10.7803V21.4999V32.2195L37.7261 37.5757L28.4502 32.2195L37.7237 26.8609V16.1437L46.9972 10.7803Z" fill="url(#paint43_linear_81_27511)"/>
<path opacity="0.82" d="M46.9972 10.7803V21.4999V32.2195L37.7261 37.5757L28.4502 32.2195L37.7237 26.8609V16.1437L46.9972 10.7803Z" fill="url(#paint44_linear_81_27511)"/>
<path opacity="0.82" d="M9.9082 21.4999V32.2195L19.1817 37.5757L28.4504 32.2195L19.1817 26.8609V16.1437L9.9082 21.4999Z" fill="url(#paint45_linear_81_27511)"/>
<g opacity="0.82">
<path d="M28.4502 21.4999L37.7237 26.8609L46.9972 21.4999L37.7237 16.1437L28.4502 21.4999Z" fill="url(#paint46_linear_81_27511)"/>
</g>
<g opacity="0.77">
<g opacity="0.69">
<path d="M28.4502 21.4999V32.2195L37.7237 26.8609V16.1437L28.4502 21.4999Z" fill="url(#paint47_linear_81_27511)"/>
</g>
<path d="M28.4503 32.2195L19.1816 26.8609V16.1437L28.4503 21.4999V32.2195Z" fill="url(#paint48_linear_81_27511)"/>
<g opacity="0.77">
<path d="M37.7238 16.1437L28.4503 21.4999L19.1816 16.1437L28.4503 10.7803L37.7238 16.1437Z" fill="url(#paint49_linear_81_27511)"/>
</g>
</g>
<path d="M81.218 15.8064H71.066C70.8205 15.8064 70.6953 15.6739 70.6953 15.4064V5.71802C70.6953 5.45057 70.8229 5.31805 71.0804 5.31805H80.9243C81.1915 5.31805 81.3239 5.44094 81.3239 5.68911V7.09382C81.3239 7.33958 81.1891 7.46487 80.9243 7.46487H73.5137V9.4093H80.4767C80.7342 9.4093 80.8618 9.53218 80.8618 9.78035V11.0911C80.8618 11.3489 80.7342 11.4766 80.4767 11.4766H73.5137V13.6668H81.218C81.3624 13.6668 81.4611 13.6933 81.5188 13.7439C81.5742 13.7945 81.6031 13.8885 81.6031 14.021V15.4257C81.6031 15.6835 81.4731 15.8112 81.218 15.8112V15.8064Z" fill="#DCDCDA"/>
<path d="M89.3532 5.70112L92.6049 8.86473L95.8252 5.70112C96.0827 5.44331 96.3547 5.31561 96.6411 5.31561H99.137C99.2694 5.31561 99.3536 5.3638 99.3897 5.46259C99.4258 5.56138 99.3921 5.65535 99.2886 5.7469L94.4052 10.467L99.5654 15.3582C99.6569 15.4497 99.6858 15.5485 99.6497 15.6521C99.6136 15.7557 99.5341 15.8063 99.4114 15.8063H96.7157C96.593 15.8063 96.4775 15.7823 96.3691 15.7365C96.2608 15.6907 96.1862 15.6497 96.1453 15.6136C96.1044 15.5774 96.0274 15.5076 95.9143 15.4064L92.5086 12.1657L89.1198 15.4064C88.8526 15.6738 88.5855 15.8063 88.3183 15.8063H85.7767C85.6539 15.8063 85.5745 15.7533 85.5384 15.6449C85.5023 15.5365 85.536 15.4353 85.6395 15.3437L90.6914 10.5152L85.7141 5.77823C85.6227 5.67703 85.5914 5.57342 85.6227 5.46982C85.6539 5.36862 85.731 5.31561 85.8537 5.31561H88.5349C88.7202 5.31561 88.8647 5.34453 88.9657 5.39994C89.0692 5.45536 89.1968 5.55656 89.3508 5.70112H89.3532Z" fill="#DCDCDA"/>
<path d="M115.883 12.1199V12.7054C115.883 13.1488 115.772 13.5584 115.551 13.9391C115.329 14.3198 114.985 14.6764 114.518 15.0113C114.051 15.3462 113.39 15.6088 112.53 15.7992C111.673 15.9895 110.667 16.0835 109.519 16.0835C108.371 16.0835 107.365 15.9895 106.506 15.7992C105.649 15.6088 104.987 15.3462 104.518 15.0113C104.051 14.6764 103.707 14.3198 103.485 13.9391C103.264 13.5584 103.153 13.1464 103.153 12.7054V8.41662C103.153 7.97569 103.264 7.56368 103.485 7.18298C103.707 6.80229 104.051 6.44569 104.518 6.11078C104.985 5.77828 105.647 5.51564 106.506 5.32289C107.363 5.13254 108.369 5.03857 109.519 5.03857C110.67 5.03857 111.673 5.13495 112.53 5.32289C113.387 5.51324 114.049 5.77587 114.518 6.11078C114.985 6.44569 115.329 6.80229 115.551 7.18298C115.772 7.56368 115.883 7.97569 115.883 8.41662V8.98766C115.883 9.25511 115.76 9.38763 115.512 9.38763H113.433C113.187 9.38763 113.062 9.25511 113.062 8.98766V8.75635C113.062 8.19977 112.785 7.80462 112.229 7.5685C111.676 7.33237 110.771 7.21431 109.519 7.21431C108.268 7.21431 107.363 7.3396 106.807 7.59259C106.251 7.84558 105.974 8.27446 105.974 8.88164V12.2452C105.974 12.8524 106.251 13.2813 106.807 13.5343C107.363 13.7873 108.265 13.9126 109.519 13.9126C110.773 13.9126 111.676 13.7945 112.229 13.5584C112.785 13.3223 113.062 12.9247 113.062 12.3705V12.1223C113.062 11.8549 113.185 11.7224 113.433 11.7224H115.512C115.76 11.7224 115.883 11.8549 115.883 12.1223V12.1199Z" fill="#DCDCDA"/>
<path d="M123.663 5.71561V13.662H130.857C131.001 13.662 131.1 13.6885 131.157 13.7391C131.213 13.7897 131.242 13.8836 131.242 14.0162V15.4209C131.242 15.6787 131.114 15.8064 130.857 15.8064H121.167C120.95 15.8064 120.842 15.6739 120.842 15.4064V5.71802C120.842 5.45057 120.969 5.31805 121.227 5.31805H123.306C123.542 5.31805 123.66 5.45057 123.66 5.71802L123.663 5.71561Z" fill="#DCDCDA"/>
<path d="M138.192 5.71558V12.2428C138.192 12.85 138.488 13.2788 139.078 13.5318C139.67 13.7848 140.626 13.9101 141.952 13.9101C143.278 13.9101 144.219 13.7848 144.809 13.5318C145.398 13.2788 145.694 12.85 145.694 12.2428V5.71558C145.694 5.44813 145.822 5.31561 146.08 5.31561H148.159C148.405 5.31561 148.53 5.44813 148.53 5.71558V12.7054C148.53 13.6523 148.003 14.4522 146.951 15.1052C145.897 15.7582 144.231 16.0834 141.952 16.0834C140.996 16.0834 140.137 16.0184 139.372 15.8907C138.606 15.763 137.981 15.5895 137.492 15.3751C137.003 15.1582 136.597 14.9052 136.267 14.6113C135.937 14.3173 135.706 14.0161 135.574 13.7005C135.441 13.3873 135.374 13.0548 135.374 12.7054V5.71558C135.374 5.44813 135.497 5.31561 135.742 5.31561H137.822C138.067 5.31561 138.192 5.44813 138.192 5.71558Z" fill="#DCDCDA"/>
<path d="M163.426 8.50815V8.27684C163.426 7.86482 163.149 7.56123 162.593 7.36607C162.037 7.1709 161.13 7.07212 159.866 7.07212C158.602 7.07212 157.671 7.14922 157.132 7.30342C156.593 7.45763 156.323 7.7299 156.323 8.12264V8.41658C156.323 8.69367 156.47 8.88884 156.761 9.00208C157.055 9.11533 157.524 9.20688 158.172 9.27917L162.701 9.75624C165.115 10.0044 166.321 10.7947 166.321 12.132V13.074C166.321 15.0811 164.165 16.0834 159.852 16.0834C155.539 16.0834 153.396 15.0859 153.396 13.0909V12.4283C153.396 12.1705 153.524 12.0428 153.782 12.0428H155.738C155.974 12.0428 156.092 12.1705 156.092 12.4283V12.7994C156.092 13.633 157.346 14.0499 159.852 14.0499C161.187 14.0499 162.15 13.9704 162.74 13.8113C163.329 13.6523 163.626 13.3776 163.626 12.9849V12.6452C163.626 12.409 163.505 12.2332 163.262 12.1199C163.021 12.0067 162.593 11.9199 161.977 11.8573L157.216 11.3489C156.116 11.2356 155.245 10.961 154.598 10.5224C153.95 10.0839 153.628 9.47193 153.628 8.67922V8.12264C153.628 6.06497 155.707 5.03613 159.866 5.03613C164.025 5.03613 166.121 6.0746 166.121 8.15396V8.50815C166.121 8.77559 165.999 8.90811 165.753 8.90811H163.796C163.551 8.90811 163.428 8.77559 163.428 8.50815H163.426Z" fill="#DCDCDA"/>
<path d="M174.15 5.71558V15.404C174.15 15.6714 174.032 15.8039 173.797 15.8039H171.717C171.46 15.8039 171.332 15.6714 171.332 15.404V5.71558C171.332 5.44813 171.46 5.31561 171.717 5.31561H173.797C174.032 5.31561 174.15 5.44813 174.15 5.71558Z" fill="#DCDCDA"/>
<path d="M187.121 15.4065C186.967 15.6739 186.768 15.8064 186.52 15.8064H184.657C184.39 15.8064 184.185 15.6739 184.041 15.4065L178.572 5.71808C178.51 5.60484 178.507 5.50846 178.565 5.43377C178.62 5.35667 178.721 5.31812 178.866 5.31812H180.945C181.191 5.31812 181.386 5.45063 181.53 5.71808L184.782 11.5803C185.008 11.9706 185.307 12.5416 185.675 13.2934L186.613 11.5489L189.865 5.71808C190.009 5.45063 190.2 5.31812 190.436 5.31812H192.424C192.556 5.31812 192.655 5.35667 192.717 5.43377C192.78 5.51087 192.78 5.60725 192.717 5.71808L187.124 15.4065H187.121Z" fill="#DCDCDA"/>
<path d="M207.581 15.8064H197.429C197.184 15.8064 197.059 15.6739 197.059 15.4064V5.71802C197.059 5.45057 197.186 5.31805 197.444 5.31805H207.288C207.555 5.31805 207.687 5.44094 207.687 5.68911V7.09382C207.687 7.33958 207.552 7.46487 207.288 7.46487H199.877V9.4093H206.84C207.097 9.4093 207.225 9.53218 207.225 9.78035V11.0911C207.225 11.3489 207.097 11.4766 206.84 11.4766H199.877V13.6668H207.581C207.726 13.6668 207.824 13.6933 207.882 13.7439C207.937 13.7945 207.966 13.8885 207.966 14.021V15.4257C207.966 15.6835 207.836 15.8112 207.581 15.8112V15.8064Z" fill="#DCDCDA"/>
<path d="M86.982 31.9063V34.7229L86.8231 34.7543C84.7581 35.1205 82.7604 35.3084 80.8855 35.3084C76.6784 35.3084 74.1849 33.4604 74.1849 30.504C74.1849 29.4342 74.6133 25.9646 81.6846 25.9646C82.8928 25.9646 86.8231 26.62 86.8231 26.62L88.7558 24.1382L88.6355 24.119C86.2094 23.7214 83.7761 23.5214 81.4078 23.5214C77.8866 23.5214 75.0104 24.172 72.8611 25.4586C70.7118 26.7645 69.6191 28.4897 69.6191 30.5883C69.6191 32.687 70.6589 34.4965 72.7095 35.8144C74.7866 37.1131 77.5376 37.7733 80.8879 37.7733C83.805 37.7733 86.9772 37.289 90.5874 36.2987L90.638 36.2867V29.5619H85.7906L84.1082 31.9063H86.9844H86.982Z" fill="#DCDCDA"/>
<path d="M106.203 23.519C99.8971 23.519 96.1088 26.1574 96.0654 30.5739C96.0654 32.7496 96.9367 34.4603 98.7298 35.8048C100.549 37.1276 102.879 37.7709 105.854 37.7709C108.165 37.7709 110.379 37.2794 112.439 36.3084L112.716 36.1759V37.3348H117.339V24.1768C112.759 23.7335 109.113 23.519 106.203 23.519ZM112.716 33.7761L112.61 33.8291C110.665 34.8314 108.627 35.3398 106.55 35.3398C102.99 35.3398 100.6 33.458 100.6 30.6558C100.6 29.2391 101.151 28.1042 102.237 27.2826C104.711 25.4129 109.705 25.7044 112.716 26.1068V33.7761Z" fill="#DCDCDA"/>
<path d="M159.194 28.6801V37.3348H154.568V29.6439C154.568 28.7644 154.207 28.0247 153.49 27.4392C151.109 25.4924 145.304 26.0008 143.891 26.2971C144.3 26.6465 144.719 27.0103 144.719 28.6512V37.3348H140.052V29.5836C140.052 28.2102 139.39 27.1814 138.086 26.526C135.934 25.4466 132.442 25.6394 130.204 25.9863V37.3348H125.58V24.2226C126.348 24.1118 127.842 23.9335 130.103 23.7841C132.319 23.6058 134.298 23.519 136.148 23.519C138.572 23.519 140.481 23.8154 141.829 24.4057L141.891 24.4322L141.954 24.4178C144.334 23.8202 147.263 23.519 150.666 23.519C156.404 23.519 159.194 25.2081 159.194 28.6801Z" fill="#DCDCDA"/>
<path d="M183.352 25.155C182.44 24.6057 181.388 24.1889 180.204 23.9118C179.02 23.6347 177.703 23.4949 176.257 23.4949C173.159 23.4949 170.569 24.1624 168.562 25.4731C166.567 26.7766 165.597 28.4656 165.597 30.6341C165.597 32.8026 166.593 34.4555 168.562 35.7711C170.557 37.1011 173.45 37.7757 177.171 37.7757C178.923 37.7757 182.298 37.5998 185.489 36.4313L184.168 34.4218C180.471 35.4675 178.425 35.4675 177.063 35.4675C173.717 35.4675 171.212 34.1013 170.386 31.9882L170.28 31.7232H185.869C186.045 31.0124 186.129 30.2462 186.129 29.386C186.091 27.6199 185.179 26.2393 183.347 25.1575L183.352 25.155ZM170.15 29.5475L170.206 29.3089C170.692 27.1838 173.043 25.7526 176.348 25.7526C179.653 25.7526 181.852 27.1597 181.992 29.3403L182.004 29.5475H170.15Z" fill="#DCDCDA"/>
<path d="M207.824 30.928C206.705 30.3811 204.821 29.9185 202.214 29.5474C200.185 29.2824 199.023 29.1065 198.661 29.0173C197.275 28.733 196.596 28.2608 196.596 27.5789C196.596 26.4272 197.826 25.8706 200.368 25.8706C202.281 25.8706 204.765 26.1742 207.755 26.7765L208.806 24.5382C206.257 23.8948 203.579 23.5816 200.628 23.5816C195.176 23.5816 191.516 25.2827 191.516 27.8126C191.516 29.8293 193.795 31.0196 198.907 31.6629C199.152 31.7087 199.542 31.752 199.915 31.7954C200.289 31.8388 200.678 31.8821 200.924 31.9279C201.095 31.9544 201.309 31.9858 201.528 32.0147C201.983 32.0773 202.455 32.1424 202.731 32.2243C203.788 32.393 205.225 32.7423 205.225 33.776C205.225 34.8843 203.819 35.3975 200.799 35.3975C198.262 35.3975 195.535 35.012 192.466 34.2169L191.597 36.6119C194.512 37.3829 197.518 37.7733 200.539 37.7733C206.375 37.7733 209.998 36.1083 209.998 33.429C209.998 32.1424 208.638 31.3111 207.824 30.928Z" fill="#DCDCDA"/>
<defs>
<linearGradient id="paint0_linear_81_27511" x1="43.5675" y1="-1.05734" x2="8.59207" y2="47.2906" gradientUnits="userSpaceOnUse">
<stop stop-color="#FF3C2E"/>
<stop offset="1" stop-color="#872AFF"/>
</linearGradient>
<linearGradient id="paint1_linear_81_27511" x1="57.2238" y1="-10.3" x2="37.9914" y2="27.2969" gradientUnits="userSpaceOnUse">
<stop stop-color="#FF291A"/>
<stop offset="1" stop-color="#6B11FF"/>
</linearGradient>
<linearGradient id="paint2_linear_81_27511" x1="57.0649" y1="-12.2685" x2="22.0895" y2="36.0795" gradientUnits="userSpaceOnUse">
<stop stop-color="#FF493C"/>
<stop offset="1" stop-color="#8F38FF"/>
</linearGradient>
<linearGradient id="paint3_linear_81_27511" x1="55.3729" y1="-6.18465" x2="20.3999" y2="42.1634" gradientUnits="userSpaceOnUse">
<stop stop-color="#D8338B"/>
<stop offset="1" stop-color="#2F4BD8"/>
</linearGradient>
<linearGradient id="paint4_linear_81_27511" x1="62.409" y1="-7.64959" x2="43.1742" y2="29.9473" gradientUnits="userSpaceOnUse">
<stop stop-color="#D7157C"/>
<stop offset="1" stop-color="#0D39D6"/>
</linearGradient>
<linearGradient id="paint5_linear_81_27511" x1="32.636" y1="-6.58705" x2="-8.97528" y2="48.2325" gradientUnits="userSpaceOnUse">
<stop stop-color="#D4355C"/>
<stop offset="1" stop-color="#3C31D3"/>
</linearGradient>
<linearGradient id="paint6_linear_81_27511" x1="28.0751" y1="-5.97742" x2="7.5116" y2="43.2172" gradientUnits="userSpaceOnUse">
<stop stop-color="#D42D75"/>
<stop offset="1" stop-color="#283DCF"/>
</linearGradient>
<linearGradient id="paint7_linear_81_27511" x1="46.078" y1="-17.4561" x2="4.46911" y2="37.3659" gradientUnits="userSpaceOnUse">
<stop stop-color="#FF3C2A"/>
<stop offset="1" stop-color="#8226FF"/>
</linearGradient>
<linearGradient id="paint8_linear_81_27511" x1="60.7476" y1="-4.62817" x2="23.4871" y2="27.1775" gradientUnits="userSpaceOnUse">
<stop stop-color="#FF1E0E"/>
<stop offset="1" stop-color="#6305FF"/>
</linearGradient>
<linearGradient id="paint9_linear_81_27511" x1="47.5244" y1="-27.3083" x2="26.9634" y2="21.8864" gradientUnits="userSpaceOnUse">
<stop stop-color="#FF160E"/>
<stop offset="1" stop-color="#5B05FF"/>
</linearGradient>
<linearGradient id="paint10_linear_81_27511" x1="63.2986" y1="12.1779" x2="11.0764" y2="31.1735" gradientUnits="userSpaceOnUse">
<stop stop-color="#FF3E30"/>
<stop offset="1" stop-color="#832CFF"/>
</linearGradient>
<linearGradient id="paint11_linear_81_27511" x1="70.6732" y1="-0.946594" x2="38.1161" y2="30.0324" gradientUnits="userSpaceOnUse">
<stop stop-color="#E63740"/>
<stop offset="1" stop-color="#6032E1"/>
</linearGradient>
<linearGradient id="paint12_linear_81_27511" x1="69.8557" y1="4.29173" x2="34.8827" y2="52.6373" gradientUnits="userSpaceOnUse">
<stop stop-color="#D72837"/>
<stop offset="1" stop-color="#5425D7"/>
</linearGradient>
<linearGradient id="paint13_linear_81_27511" x1="78.6253" y1="7.40941" x2="46.0706" y2="38.3909" gradientUnits="userSpaceOnUse">
<stop stop-color="#D8344C"/>
<stop offset="1" stop-color="#492FD3"/>
</linearGradient>
<linearGradient id="paint14_linear_81_27511" x1="72.4108" y1="0.879769" x2="39.8561" y2="31.8588" gradientUnits="userSpaceOnUse">
<stop stop-color="#FF3D4A"/>
<stop offset="1" stop-color="#6738FA"/>
</linearGradient>
<linearGradient id="paint15_linear_81_27511" x1="69.2362" y1="1.71362" x2="27.7609" y2="44.5615" gradientUnits="userSpaceOnUse">
<stop stop-color="#FF3E30"/>
<stop offset="1" stop-color="#832CFF"/>
</linearGradient>
<linearGradient id="paint16_linear_81_27511" x1="48.1213" y1="-7.59902" x2="1.2975" y2="63.792" gradientUnits="userSpaceOnUse">
<stop stop-color="#FF493C"/>
<stop offset="1" stop-color="#9B37FF"/>
</linearGradient>
<linearGradient id="paint17_linear_81_27511" x1="31.413" y1="17.2545" x2="6.58477" y2="73.365" gradientUnits="userSpaceOnUse">
<stop stop-color="#FF7A3C"/>
<stop offset="1" stop-color="#CD37FF"/>
</linearGradient>
<linearGradient id="paint18_linear_81_27511" x1="47.3486" y1="-17.7981" x2="6.14046" y2="103.232" gradientUnits="userSpaceOnUse">
<stop stop-color="#FF603C"/>
<stop offset="1" stop-color="#B237FF"/>
</linearGradient>
<linearGradient id="paint19_linear_81_27511" x1="47.3486" y1="-17.7981" x2="6.14048" y2="103.232" gradientUnits="userSpaceOnUse">
<stop stop-color="#FF6D3C"/>
<stop offset="1" stop-color="#BF37FF"/>
</linearGradient>
<linearGradient id="paint20_linear_81_27511" x1="35.0715" y1="1.62435" x2="-11.7547" y2="73.0178" gradientUnits="userSpaceOnUse">
<stop stop-color="#FF493C"/>
<stop offset="1" stop-color="#9B37FF"/>
</linearGradient>
<linearGradient id="paint21_linear_81_27511" x1="25.6368" y1="14.698" x2="0.80852" y2="70.8109" gradientUnits="userSpaceOnUse">
<stop stop-color="#FF6D3C"/>
<stop offset="1" stop-color="#BF37FF"/>
</linearGradient>
<linearGradient id="paint22_linear_81_27511" x1="38.7227" y1="-12.5504" x2="3.74967" y2="35.7976" gradientUnits="userSpaceOnUse">
<stop stop-color="#FF4133"/>
<stop offset="1" stop-color="#8B2FFF"/>
</linearGradient>
<linearGradient id="paint23_linear_81_27511" x1="38.7468" y1="-7.77249" x2="-2.86448" y2="47.047" gradientUnits="userSpaceOnUse">
<stop stop-color="#FF2F20"/>
<stop offset="1" stop-color="#781CFF"/>
</linearGradient>
<linearGradient id="paint24_linear_81_27511" x1="40.9876" y1="-23.1712" x2="6.01457" y2="25.1767" gradientUnits="userSpaceOnUse">
<stop stop-color="#FF4B3E"/>
<stop offset="1" stop-color="#9139FF"/>
</linearGradient>
<linearGradient id="paint25_linear_81_27511" x1="13.3572" y1="-19.4342" x2="15.0167" y2="33.9205" gradientUnits="userSpaceOnUse">
<stop stop-color="#FF291A"/>
<stop offset="1" stop-color="#6B11FF"/>
</linearGradient>
<linearGradient id="paint26_linear_81_27511" x1="36.2198" y1="-32.2621" x2="-6.92668" y2="31.3519" gradientUnits="userSpaceOnUse">
<stop stop-color="#D7157C"/>
<stop offset="1" stop-color="#0D39D6"/>
</linearGradient>
<linearGradient id="paint27_linear_81_27511" x1="21.2252" y1="-14.4804" x2="-12.0484" y2="43.9248" gradientUnits="userSpaceOnUse">
<stop stop-color="#D8358C"/>
<stop offset="1" stop-color="#304AD8"/>
</linearGradient>
<linearGradient id="paint28_linear_81_27511" x1="39.9814" y1="-18.3813" x2="21.1126" y2="46.752" gradientUnits="userSpaceOnUse">
<stop stop-color="#F0E1BB"/>
<stop offset="1" stop-color="#FFF2A0" stop-opacity="0"/>
</linearGradient>
<linearGradient id="paint29_linear_81_27511" x1="38.5566" y1="8.38769" x2="14.4184" y2="26.8741" gradientUnits="userSpaceOnUse">
<stop stop-color="#FFE663"/>
<stop offset="1" stop-color="#FF6363" stop-opacity="0"/>
</linearGradient>
<linearGradient id="paint30_linear_81_27511" x1="53.4571" y1="-9.46393" x2="24.2785" y2="38.6222" gradientUnits="userSpaceOnUse">
<stop stop-color="#FFE663"/>
<stop offset="1" stop-color="#FF6363" stop-opacity="0"/>
</linearGradient>
<linearGradient id="paint31_linear_81_27511" x1="47.8782" y1="-2.26209" x2="21.7572" y2="26.382" gradientUnits="userSpaceOnUse">
<stop stop-color="#FFE663"/>
<stop offset="1" stop-color="#FF6363" stop-opacity="0"/>
</linearGradient>
<linearGradient id="paint32_linear_81_27511" x1="47.2309" y1="-27.9058" x2="10.9178" y2="29.8323" gradientUnits="userSpaceOnUse">
<stop stop-color="#FFAE3D"/>
<stop offset="1" stop-color="#FF3D3D" stop-opacity="0"/>
</linearGradient>
<linearGradient id="paint33_linear_81_27511" x1="20.2236" y1="10.6912" x2="49.5849" y2="28.5458" gradientUnits="userSpaceOnUse">
<stop stop-color="#FFAE3D"/>
<stop offset="1" stop-color="#FF3D3D" stop-opacity="0"/>
</linearGradient>
<linearGradient id="paint34_linear_81_27511" x1="72.9668" y1="9.5636" x2="39.9574" y2="31.0616" gradientUnits="userSpaceOnUse">
<stop stop-color="#FFAE3D"/>
<stop offset="1" stop-color="#FF3D3D" stop-opacity="0"/>
</linearGradient>
<linearGradient id="paint35_linear_81_27511" x1="45.2091" y1="-17.8609" x2="12.0687" y2="39.0358" gradientUnits="userSpaceOnUse">
<stop stop-color="#FFAE3D"/>
<stop offset="1" stop-color="#FF3D3D" stop-opacity="0"/>
</linearGradient>
<linearGradient id="paint36_linear_81_27511" x1="49.7339" y1="-8.78205" x2="15.4481" y2="41.801" gradientUnits="userSpaceOnUse">
<stop stop-color="#FFAE3D"/>
<stop offset="1" stop-color="#FF3D3D" stop-opacity="0"/>
</linearGradient>
<linearGradient id="paint37_linear_81_27511" x1="23.4271" y1="32.0027" x2="43.5031" y2="-6.44864" gradientUnits="userSpaceOnUse">
<stop stop-color="#FFAE3D"/>
<stop offset="1" stop-color="#FF3D3D" stop-opacity="0"/>
</linearGradient>
<linearGradient id="paint38_linear_81_27511" x1="41.4159" y1="-16.2802" x2="6.44292" y2="32.0654" gradientUnits="userSpaceOnUse">
<stop stop-color="#FFAE3D"/>
<stop offset="1" stop-color="#FF3D3D" stop-opacity="0"/>
</linearGradient>
<linearGradient id="paint39_linear_81_27511" x1="37.8683" y1="-18.8487" x2="2.89291" y2="29.4993" gradientUnits="userSpaceOnUse">
<stop stop-color="#FFAE3D"/>
<stop offset="1" stop-color="#FF3D3D" stop-opacity="0"/>
</linearGradient>
<linearGradient id="paint40_linear_81_27511" x1="28.5223" y1="34.6627" x2="48.5983" y2="-3.7862" gradientUnits="userSpaceOnUse">
<stop stop-color="#FFAE3D"/>
<stop offset="1" stop-color="#FF3D3D" stop-opacity="0"/>
</linearGradient>
<linearGradient id="paint41_linear_81_27511" x1="30.087" y1="11.1465" x2="10.1241" y2="72.0421" gradientUnits="userSpaceOnUse">
<stop stop-color="#FFE663"/>
<stop offset="1" stop-color="#FF6363" stop-opacity="0"/>
</linearGradient>
<linearGradient id="paint42_linear_81_27511" x1="32.7319" y1="22.5071" x2="44.687" y2="-5.51267" gradientUnits="userSpaceOnUse">
<stop stop-color="#FFAE3D"/>
<stop offset="1" stop-color="#FF3D3D" stop-opacity="0"/>
</linearGradient>
<linearGradient id="paint43_linear_81_27511" x1="50.2368" y1="-32.0717" x2="36.0405" y2="40.6998" gradientUnits="userSpaceOnUse">
<stop stop-color="#FFAE3D"/>
<stop offset="1" stop-color="#FF3D3D" stop-opacity="0"/>
</linearGradient>
<linearGradient id="paint44_linear_81_27511" x1="38.7635" y1="71.2309" x2="37.7021" y2="20.5675" gradientUnits="userSpaceOnUse">
<stop stop-color="#FFAE3D"/>
<stop offset="1" stop-color="#FF3D3D" stop-opacity="0"/>
</linearGradient>
<linearGradient id="paint45_linear_81_27511" x1="62.6586" y1="-3.1849" x2="0.750136" y2="39.5005" gradientUnits="userSpaceOnUse">
<stop stop-color="#FFAE3D"/>
<stop offset="1" stop-color="#FF3D3D" stop-opacity="0"/>
</linearGradient>
<linearGradient id="paint46_linear_81_27511" x1="20.9553" y1="10.7272" x2="67.3547" y2="40.4718" gradientUnits="userSpaceOnUse">
<stop stop-color="#FFE663"/>
<stop offset="1" stop-color="#FF6363" stop-opacity="0"/>
</linearGradient>
<linearGradient id="paint47_linear_81_27511" x1="47.9744" y1="2.67969" x2="4.27445" y2="65.6543" gradientUnits="userSpaceOnUse">
<stop stop-color="#FFFBBE"/>
<stop offset="1" stop-color="#FFD1D4" stop-opacity="0"/>
</linearGradient>
<linearGradient id="paint48_linear_81_27511" x1="45.1441" y1="-8.75555" x2="13.6411" y2="39.7852" gradientUnits="userSpaceOnUse">
<stop stop-color="#FFE7C6"/>
<stop offset="1" stop-color="#FFD7E8" stop-opacity="0"/>
</linearGradient>
<linearGradient id="paint49_linear_81_27511" x1="30.8187" y1="3.62181" x2="9.20091" y2="117.756" gradientUnits="userSpaceOnUse">
<stop stop-color="#EBEBEB"/>
<stop offset="1" stop-color="#F1F1F1" stop-opacity="0"/>
</linearGradient>
</defs>
</svg>
